<svg width="26" height="19" viewBox="0 0 26 19" fill="none" xmlns="http://www.w3.org/2000/svg">
<path d="M5.31818 4.41907C6.77335 4.41907 8.15464 3.82682 9.1592 2.81717C10.1639 3.82695 11.545 4.41907 13.0002 4.41907C14.4557 4.41907 15.8367 3.82708 16.8407 2.81756C17.8453 3.82708 19.2263 4.41907 20.6817 4.41907C22.6075 4.41907 24.4033 3.38207 25.3685 1.71292C25.6386 1.24563 25.4788 0.647769 25.0116 0.377636C24.5443 0.107764 23.9464 0.267264 23.6763 0.734556C23.0595 1.80154 21.912 2.46442 20.6819 2.46442C19.4515 2.46442 18.3037 1.80154 17.687 0.734556C17.5122 0.432497 17.1897 0.246284 16.8407 0.246414C16.4916 0.246414 16.1692 0.432627 15.9946 0.734816C15.3782 1.8018 14.231 2.46442 13.0005 2.46442C11.7705 2.46442 10.6227 1.8014 10.005 0.734165C9.83029 0.432236 9.50791 0.246284 9.1592 0.246284H9.15894C8.8101 0.246284 8.48771 0.432367 8.31309 0.734425C7.69633 1.8014 6.54882 2.46429 5.31857 2.46429C4.08818 2.46429 2.94041 1.8014 2.32365 0.734425C2.05352 0.267264 1.45565 0.107243 0.98836 0.377506C0.521068 0.647639 0.361178 1.2455 0.631441 1.71279C1.59613 3.38207 3.39206 4.41907 5.31818 4.41907Z" fill="#71717A"/>
<path d="M25.0116 7.54563C24.5443 7.27576 23.9464 7.43513 23.6763 7.90255C23.0595 8.96953 21.912 9.63242 20.6819 9.63242C19.4515 9.63242 18.3037 8.96953 17.687 7.90255C17.5122 7.60049 17.1897 7.41428 16.8407 7.41441C16.4916 7.41441 16.1692 7.60062 15.9946 7.90281C15.3782 8.96979 14.231 9.63242 13.0005 9.63242C11.7705 9.63242 10.6227 8.9694 10.005 7.90216C9.83029 7.60023 9.50791 7.41428 9.1592 7.41428H9.15894C8.8101 7.41428 8.48771 7.60036 8.31309 7.90242C7.69633 8.9694 6.54882 9.63229 5.31857 9.63229C4.08818 9.63229 2.94041 8.9694 2.32365 7.90242C2.05352 7.43513 1.45565 7.27524 0.98836 7.5455C0.521068 7.81564 0.361178 8.4135 0.631441 8.88079C1.59652 10.5501 3.39245 11.5871 5.3187 11.5871C6.77387 11.5871 8.15516 10.9948 9.15972 9.98517C10.1644 10.9949 11.5456 11.5871 13.0007 11.5871C14.4562 11.5871 15.8372 10.9951 16.8412 9.98556C17.8458 10.9951 19.2268 11.5871 20.6823 11.5871C22.608 11.5871 24.4038 10.5502 25.369 8.88079C25.6386 8.41363 25.4788 7.81577 25.0116 7.54563Z" fill="#71717A"/>
<path d="M25.0116 14.7135C24.5443 14.4435 23.9464 14.603 23.6763 15.0705C23.0595 16.1374 21.912 16.8003 20.6819 16.8003C19.4515 16.8003 18.3037 16.1374 17.687 15.0705C17.5122 14.7684 17.1897 14.5822 16.8407 14.5823C16.4916 14.5823 16.1692 14.7685 15.9946 15.0707C15.3782 16.1377 14.231 16.8003 13.0005 16.8003C11.7705 16.8003 10.6227 16.1373 10.005 15.0701C9.83029 14.7681 9.50791 14.5822 9.1592 14.5822H9.15894C8.8101 14.5822 8.48771 14.7683 8.31309 15.0703C7.69633 16.1373 6.54882 16.8002 5.31857 16.8002C4.08818 16.8002 2.94041 16.1373 2.32365 15.0703C2.05352 14.603 1.45565 14.4433 0.98836 14.7134C0.521068 14.9835 0.361178 15.5814 0.631441 16.0487C1.59652 17.718 3.39245 18.755 5.3187 18.755C6.77387 18.755 8.15516 18.1627 9.15972 17.1531C10.1644 18.1629 11.5456 18.755 13.0007 18.755C14.4562 18.755 15.8372 18.163 16.8412 17.1535C17.8458 18.163 19.2268 18.755 20.6823 18.755C22.608 18.755 24.4038 17.718 25.369 16.0487C25.6386 15.5815 25.4788 14.9837 25.0116 14.7135Z" fill="#71717A"/>
</svg>
