<svg width="24" height="23" viewBox="0 0 24 23" fill="none" xmlns="http://www.w3.org/2000/svg">
<path d="M4.47402 16.1286C4.54606 16.1672 4.62669 16.1869 4.7084 16.1859C4.80458 16.1856 4.8988 16.1587 4.98062 16.1081C5.06244 16.0576 5.12866 15.9853 5.17194 15.8994L5.69277 14.8578C5.74333 14.7364 5.74608 14.6003 5.70049 14.477C5.6549 14.3536 5.56433 14.2521 5.44697 14.1928C5.32961 14.1334 5.19415 14.1207 5.06778 14.1571C4.94141 14.1935 4.83349 14.2763 4.76569 14.389L4.24486 15.4307C4.18308 15.5537 4.17251 15.6962 4.21545 15.8269C4.25839 15.9577 4.35135 16.0662 4.47402 16.1286Z" fill="#71717A"/>
<path d="M19.5261 14.1609C19.4031 14.0991 19.2606 14.0885 19.1299 14.1315C18.9991 14.1744 18.8906 14.2674 18.8282 14.39L18.3074 15.4317C18.2456 15.5547 18.235 15.6972 18.2779 15.8279C18.3209 15.9587 18.4139 16.0672 18.5365 16.1296C18.6086 16.1682 18.6892 16.1879 18.7709 16.1869C18.8671 16.1866 18.9613 16.1597 19.0431 16.1091C19.1249 16.0586 19.1912 15.9863 19.2344 15.9005L19.7553 14.8588C19.817 14.7358 19.8276 14.5933 19.7847 14.4625C19.7417 14.3318 19.6488 14.2233 19.5261 14.1609Z" fill="#71717A"/>
<path d="M3.95351 21.3395C4.02556 21.3781 4.10618 21.3978 4.18789 21.3968C4.28407 21.3965 4.37829 21.3696 4.46011 21.3191C4.54193 21.2685 4.60815 21.1963 4.65143 21.1104L5.17226 20.0687C5.22282 19.9473 5.22558 19.8113 5.17998 19.6879C5.13439 19.5646 5.04382 19.463 4.92646 19.4037C4.8091 19.3444 4.67364 19.3316 4.54727 19.368C4.4209 19.4044 4.31298 19.4873 4.24518 19.6L3.72435 20.6416C3.66257 20.7646 3.652 20.9071 3.69494 21.0379C3.73788 21.1686 3.83085 21.2771 3.95351 21.3395Z" fill="#71717A"/>
<path d="M13.5629 21.3968C13.6591 21.3965 13.7533 21.3696 13.8351 21.3191C13.9169 21.2685 13.9831 21.1963 14.0264 21.1104L14.5473 20.0687C14.5978 19.9473 14.6006 19.8113 14.555 19.6879C14.5094 19.5646 14.4188 19.463 14.3015 19.4037C14.1841 19.3444 14.0486 19.3316 13.9223 19.368C13.7959 19.4044 13.688 19.4873 13.6202 19.6L13.0993 20.6416C13.0376 20.7646 13.027 20.9071 13.0699 21.0379C13.1129 21.1686 13.2058 21.2771 13.3285 21.3395C13.4006 21.3781 13.4812 21.3978 13.5629 21.3968Z" fill="#71717A"/>
<path d="M18.016 21.3395C18.0881 21.3781 18.1687 21.3978 18.2504 21.3968C18.3466 21.3965 18.4408 21.3696 18.5226 21.3191C18.6044 21.2685 18.6706 21.1963 18.7139 21.1104L19.2348 20.0687C19.2853 19.9473 19.2881 19.8113 19.2425 19.6879C19.1969 19.5646 19.1063 19.463 18.989 19.4037C18.8716 19.3444 18.7361 19.3316 18.6098 19.368C18.4834 19.4044 18.3755 19.4873 18.3077 19.6L17.7868 20.6416C17.7251 20.7646 17.7145 20.9071 17.7574 21.0379C17.8004 21.1686 17.8933 21.2771 18.016 21.3395Z" fill="#71717A"/>
<path d="M6.79238 18.7914C6.88856 18.7911 6.98278 18.7642 7.0646 18.7136C7.14642 18.663 7.21264 18.5908 7.25592 18.5049L7.77676 17.4632C7.82731 17.3418 7.83007 17.2058 7.78448 17.0825C7.73888 16.9591 7.64832 16.8576 7.53096 16.7982C7.4136 16.7389 7.27813 16.7261 7.15176 16.7625C7.0254 16.7989 6.91748 16.8818 6.84967 16.9945L6.32884 18.0362C6.26706 18.1592 6.25649 18.3016 6.29943 18.4324C6.34237 18.5632 6.43534 18.6716 6.55801 18.7341C6.63005 18.7726 6.71067 18.7923 6.79238 18.7914Z" fill="#71717A"/>
<path d="M16.9226 16.7663C16.7996 16.7046 16.6571 16.694 16.5264 16.7369C16.3956 16.7799 16.2871 16.8728 16.2247 16.9955L15.7038 18.0372C15.6421 18.1602 15.6315 18.3026 15.6744 18.4334C15.7174 18.5642 15.8103 18.6726 15.933 18.7351C16.005 18.7737 16.0857 18.7934 16.1674 18.7924C16.2636 18.7921 16.3578 18.7652 16.4396 18.7146C16.5214 18.664 16.5876 18.5918 16.6309 18.5059L17.1518 17.4643C17.2135 17.3413 17.2241 17.1988 17.1812 17.068C17.1382 16.9372 17.0453 16.8288 16.9226 16.7663Z" fill="#71717A"/>
<path d="M20.6205 18.7341C20.6925 18.7726 20.7732 18.7923 20.8549 18.7914C20.9511 18.7911 21.0453 18.7642 21.1271 18.7136C21.2089 18.663 21.2751 18.5908 21.3184 18.5049L21.8393 17.4632C21.8898 17.3418 21.8926 17.2058 21.847 17.0825C21.8014 16.9591 21.7108 16.8576 21.5935 16.7982C21.4761 16.7389 21.3406 16.7261 21.2143 16.7625C21.0879 16.7989 20.98 16.8818 20.9122 16.9945L20.3913 18.0362C20.3296 18.1592 20.319 18.3016 20.3619 18.4324C20.4049 18.5632 20.4978 18.6716 20.6205 18.7341Z" fill="#71717A"/>
<path d="M2.10488 18.7914C2.20106 18.7911 2.29528 18.7642 2.3771 18.7136C2.45892 18.663 2.52514 18.5908 2.56842 18.5049L3.08926 17.4632C3.13981 17.3418 3.14257 17.2058 3.09698 17.0825C3.05138 16.9591 2.96082 16.8576 2.84346 16.7982C2.7261 16.7389 2.59063 16.7261 2.46426 16.7625C2.3379 16.7989 2.22998 16.8818 2.16217 16.9945L1.64134 18.0362C1.57956 18.1592 1.56899 18.3016 1.61193 18.4324C1.65487 18.5632 1.74784 18.6716 1.87051 18.7341C1.94255 18.7726 2.02318 18.7923 2.10488 18.7914Z" fill="#71717A"/>
<path d="M19.7451 6.50972C19.8545 5.90554 19.8278 5.28458 19.667 4.69201C19.4758 3.98132 19.0998 3.33395 18.5773 2.81573C18.0547 2.29752 17.4042 1.92696 16.6919 1.74175C15.9797 1.55654 15.2311 1.56329 14.5222 1.76131C13.8134 1.95933 13.1697 2.34155 12.6566 2.8691C12.2285 1.87972 11.4725 1.06813 10.5159 0.571051C9.55937 0.0739716 8.46071 -0.0782126 7.40504 0.140138C6.34938 0.358488 5.40123 0.934027 4.72035 1.76979C4.03946 2.60555 3.66745 3.65046 3.66699 4.72847C3.66439 4.77879 3.66439 4.8292 3.66699 4.87951C2.78046 5.11828 1.99586 5.6394 1.43199 6.36398C0.868119 7.08855 0.555685 7.97711 0.541992 8.89514V8.94722C0.577428 10.198 1.10282 11.3847 2.00495 12.2518C2.90708 13.1189 4.11374 13.5968 5.36491 13.5826H20.3337C21.1625 13.5826 21.9573 13.2534 22.5434 12.6673C23.1294 12.0813 23.4587 11.2864 23.4587 10.4576C23.4788 9.9534 23.3983 9.4502 23.2218 8.97745C23.0452 8.50469 22.7762 8.07188 22.4305 7.7043C22.0847 7.33672 21.6691 7.04176 21.2081 6.83664C20.747 6.63153 20.2496 6.52039 19.7451 6.50972Z" fill="#71717A"/>
<path d="M9.29694 14.625L8.38548 17.0469C8.356 17.1258 8.34609 17.2107 8.35662 17.2943C8.36716 17.3779 8.39781 17.4576 8.44595 17.5268C8.49409 17.5959 8.55828 17.6524 8.63302 17.6912C8.70776 17.7301 8.79082 17.7503 8.87507 17.75H10.2605L8.87507 22.2865C8.84015 22.4013 8.84595 22.5246 8.89151 22.6357C8.93706 22.7467 9.01957 22.8386 9.12507 22.8958C9.20802 22.9408 9.30163 22.9624 9.3959 22.9583C9.47113 22.9583 9.54547 22.942 9.6138 22.9106C9.68213 22.8791 9.74283 22.8332 9.79173 22.776L15.5209 16.0052C15.5856 15.9295 15.6273 15.8369 15.641 15.7383C15.6547 15.6397 15.6398 15.5392 15.5982 15.4488C15.5565 15.3583 15.4898 15.2817 15.406 15.228C15.3221 15.1744 15.2246 15.1458 15.1251 15.1458H13.2917L13.5001 14.625H9.29694Z" fill="#71717A"/>
</svg>
